P3
100 50
255
9
59
213
8
61
222
8
60
221
8
60
221
8
60
221
8
60
221
8
60
221
8
60
221
8
60
221
8
60
221
8
60
221
8
60
221
8
60
221
8
60
221
8
60
221
8
60
221
8
60
221
8
60
221
8
60
221
8
60
221
8
60
221
8
60
221
8
60
221
8
60
221
9
61
222
11
61
221
10
62
222
9
60
223
9
61
222
9
61
222
10
62
223
9
62
222
9
60
222
9
61
221
7
63
220
9
61
222
9
61
222
9
62
222
8
61
223
5
59
223
5
59
221
6
59
222
8
61
222
9
62
222
8
61
222
8
60
221
8
60
221
8
60
221
8
60
221
8
60
221
8
60
221
8
60
221
8
60
221
8
60
221
8
60
221
8
60
221
8
60
221
8
60
221
8
60
221
8
60
221
8
60
221
8
60
221
9
61
222
8
60
221
8
60
221
8
60
221
8
60
221
8
60
221
8
60
221
8
60
221
8
60
221
8
60
221
8
60
221
8
60
221
8
60
221
8
60
221
8
60
221
8
60
221
8
60
221
8
60
221
8
60
221
8
60
221
8
60
221
8
60
221
8
60
221
8
60
221
8
60
221
8
60
221
8
60
221
8
60
221
8
60
221
8
60
221
8
60
221
8
60
221
8
60
221
8
60
221
8
60
221
8
61
222
8
60
222
9
59
215
9
59
213
9
61
222
9
61
222
9
61
222
9
61
222
9
61
222
9
61
222
9
61
222
9
61
222
9
61
222
9
61
222
9
61
222
8
60
221
9
61
222
9
61
222
9
61
222
9
61
222
9
61
222
8
60
221
9
61
222
9
61
222
9
61
222
9
61
222
8
61
224
4
58
225
0
51
228
0
47
217
0
41
213
0
39
210
0
42
207
0
42
210
0
41
212
0
50
215
0
49
225
0
47
223
0
47
219
0
44
221
0
49
213
10
57
207
41
87
215
48
93
210
37
83
208
9
58
214
0
48
216
1
58
227
1
54
224
5
58
222
9
61
222
9
61
222
9
61
222
9
61
222
9
61
222
9
61
222
9
61
222
8
61
222
9
61
222
8
61
222
9
61
222
9
61
222
9
61
222
9
61
222
9
61
222
9
61
222
8
61
223
9
61
222
7
60
224
7
59
222
8
60
222
9
61
222
9
61
221
9
61
222
9
61
222
9
61
222
9
61
222
9
61
222
9
61
222
8
60
225
8
61
223
9
61
222
9
61
222
9
61
222
9
61
222
9
61
222
9
61
222
9
61
222
9
61
222
9
61
222
9
61
222
9
61
222
9
61
222
8
60
221
9
61
222
9
61
222
9
61
222
9
61
222
9
61
222
9
61
222
9
61
222
9
61
223
10
59
215
9
60
214
9
61
222
9
61
222
9
61
222
9
61
222
9
61
222
9
61
222
9
61
222
9
61
222
9
61
222
9
61
222
9
61
222
10
62
223
9
61
223
9
61
222
10
61
222
8
58
222
9
60
224
9
63
220
8
63
220
12
61
221
18
68
220
13
66
217
28
76
201
69
109
185
117
142
181
144
161
179
183
193
178
198
211
186
192
201
189
187
201
201
154
176
198
124
156
204
149
172
203
161
183
199
157
179
205
177
196
210
197
214
205
203
219
204
203
218
203
200
213
199
192
205
201
198
214
208
148
170
197
84
115
205
75
115
210
36
81
226
8
60
222
9
61
222
9
61
222
9
61
222
10
61
221
9
62
224
28
77
213
33
78
214
34
80
212
30
76
213
13
64
220
9
61
222
9
61
221
9
61
222
9
61
222
10
62
223
19
67
213
12
63
217
26
74
210
26
75
216
21
70
216
6
58
219
10
60
226
9
62
220
8
61
220
10
62
221
11
61
221
10
62
220
20
69
218
45
89
199
27
73
216
21
69
223
8
61
223
5
58
225
9
60
224
10
60
222
10
62
223
10
62
223
9
61
222
9
61
222
11
60
221
10
60
226
8
61
222
10
62
221
9
61
223
9
60
222
9
61
222
9
61
222
9
61
222
9
61
222
9
62
222
9
62
221
9
60
216
9
59
213
8
61
221
8
60
221
8
60
221
8
60
221
8
60
221
8
60
221
8
60
221
9
61
222
9
61
222
8
60
221
8
60
221
8
60
221
8
60
221
8
60
222
0
55
221
74
118
205
58
107
171
46
92
194
61
103
193
3
59
204
58
108
187
63
110
176
81
130
177
90
131
173
110
138
189
140
156
171
158
171
156
86
120
201
18
72
218
87
120
215
182
203
233
188
206
214
207
225
215
191
210
197
189
207
208
188
206
204
187
205
205
186
204
204
185
204
204
186
204
204
186
205
204
186
206
199
178
191
177
103
129
191
12
64
223
6
60
217
9
61
222
8
60
221
8
60
221
8
60
220
8
59
224
8
62
221
35
79
219
58
100
184
41
85
211
23
77
204
10
63
224
8
61
219
8
60
222
8
60
221
8
60
221
7
62
218
12
64
220
9
62
219
6
57
225
8
61
209
34
85
207
78
119
201
19
69
226
7
61
224
8
60
221
9
61
222
5
62
221
0
50
231
0
54
226
25
73
198
36
83
198
131
172
172
82
120
159
63
105
172
21
68
214
7
61
220
8
60
222
8
59
222
7
59
222
8
60
221
7
61
219
11
62
206
8
60
212
6
61
217
7
58
215
7
61
221
8
60
221
8
60
221
8
60
221
8
60
221
8
60
221
8
61
220
9
59
215
12
63
211
9
61
223
9
61
221
9
61
224
8
61
222
8
60
223
10
63
219
8
61
222
7
59
224
6
58
225
6
58
224
8
60
224
8
60
224
8
59
225
6
58
224
55
101
176
69
108
166
43
90
166
74
117
161
51
99
179
65
103
178
16
65
213
49
91
168
82
123
168
40
84
186
115
139
178
103
130
188
91
115
180
35
78
198
23
71
214
3
56
218
0
42
218
0
46
217
0
41
212
133
159
215
187
206
206
188
206
204
187
206
204
187
205
207
187
205
207
186
204
205
186
204
201
178
187
178
173
186
171
72
108
200
8
62
219
11
59
226
9
62
222
9
61
222
9
61
222
9
61
222
9
62
220
9
61
222
7
62
216
6
56
230
7
57
225
10
59
221
11
61
221
8
60
225
8
60
224
9
61
223
9
61
222
10
60
223
8
60
219
17
68
213
78
121
147
72
115
180
14
64
214
1
55
220
36
81
192
15
68
212
24
73
207
34
79
193
57
90
174
127
162
108
150
171
86
155
178
92
147
172
87
143
162
88
139
164
91
117
155
105
53
103
154
33
88
174
32
82
192
37
88
182
31
86
183
8
60
220
14
66
215
55
97
190
63
111
169
27
81
193
36
89
196
7
59
220
10
62
220
8
60
222
7
59
224
7
59
225
6
58
226
5
58
224
8
60
215
11
62
204
1
55
226
9
59
228
9
62
218
33
83
184
71
129
114
76
135
98
70
130
107
85
136
129
78
130
130
69
122
150
23
73
196
27
83
186
55
114
149
57
118
135
76
112
154
82
123
150
76
119
145
109
143
118
122
152
114
129
148
128
73
112
180
36
78
198
89
123
150
91
136
159
45
81
186
93
118
141
84
117
147
97
122
161
158
169
148
127
142
150
22
67
217
0
58
222
6
60
227
29
80
209
82
116
203
198
217
212
187
205
207
186
204
205
187
205
207
191
210
203
204
210
183
177
186
174
81
112
188
0
54
222
7
60
222
8
61
219
8
62
220
8
60
221
9
61
222
9
61
222
8
60
221
8
60
221
9
60
227
25
73
203
66
118
145
87
138
124
85
133
110
64
120
134
27
85
177
7
58
218
6
56
227
6
58
215
19
74
211
14
62
212
17
68
197
22
73
197
42
106
160
25
77
182
100
159
75
52
110
144
86
148
85
99
153
90
97
156
71
105
157
74
118
159
79
124
163
85
122
162
84
116
161
82
127
160
94
104
158
78
89
158
63
90
157
66
86
156
69
93
156
66
107
158
83
92
138
110
93
148
95
98
144
99
96
156
78
81
152
71
78
147
83
69
135
101
71
135
103
57
122
130
41
101
164
37
93
164
58
115
156
71
119
149
46
87
176
105
145
100
80
113
154
27
77
189
19
69
209
62
116
125
84
153
64
92
157
72
90
155
68
90
155
63
86
158
64
76
153
53
85
164
44
93
162
58
90
159
63
85
159
55
82
160
52
91
151
88
95
163
61
75
141
97
68
133
103
91
156
83
81
147
89
90
155
83
95
156
90
143
179
101
94
130
131
138
161
113
28
75
205
27
78
207
43
92
155
154
174
94
172
192
167
79
106
189
9
60
215
9
64
219
92
138
109
195
215
202
187
205
203
184
201
201
155
175
196
105
132
190
0
49
213
0
47
216
18
68
204
37
84
191
38
88
183
11
61
220
9
62
221
9
61
222
9
61
222
8
60
221
8
58
224
9
61
221
29
80
175
105
167
65
87
158
58
68
133
91
80
156
58
83
158
54
80
149
78
70
143
84
45
102
158
69
135
111
74
142
92
94
166
58
94
165
58
90
163
56
93
158
54
99
166
66
86
158
70
56
117
117
81
151
81
85
158
57
83
156
65
81
153
65
88
160
70
89
155
65
81
155
63
80
153
61
79
156
56
79
154
66
81
154
68
81
157
61
78
155
61
83
155
69
104
161
72
94
157
75
89
158
68
111
159
78
98
159
71
84
154
64
84
156
61
85
155
66
82
154
60
91
160
60
92
162
52
106
165
64
119
164
74
147
165
85
141
161
87
14
61
211
27
77
202
22
69
211
7
57
213
78
149
97
81
152
70
86
156
59
105
164
70
107
154
76
114
165
67
96
159
62
81
154
62
84
156
64
84
156
66
108
160
79
93
156
71
80
153
72
82
152
62
84
155
66
86
157
63
84
156
63
85
156
62
84
156
64
88
165
51
49
109
141
20
74
205
45
90
188
34
79
209
46
84
181
79
114
165
63
97
164
82
113
166
23
69
211
8
59
222
8
62
225
20
66
196
181
204
188
207
217
198
101
131
183
8
62
220
5
58
221
9
61
223
9
62
221
15
68
212
33
83
184
28
81
194
10
60
224
9
62
217
14
67
218
8
59
222
8
60
226
33
90
170
77
141
101
87
155
69
75
145
75
28
83
172
78
150
85
85
160
58
81
151
71
67
132
95
78
143
89
83
155
65
86
157
65
87
158
64
85
156
62
82
154
68
88
155
68
83
155
65
80
153
63
84
154
67
86
157
64
84
155
64
85
156
65
82
155
63
82
155
64
83
154
64
84
154
63
84
155
64
84
155
63
85
155
64
83
155
69
82
153
67
82
154
68
83
155
67
83
156
65
85
157
68
89
157
69
85
155
67
96
157
70
115
162
78
113
160
75
98
158
75
96
159
69
96
156
83
95
152
95
86
147
84
96
164
54
110
171
64
85
141
97
51
99
151
7
59
214
10
61
221
8
63
221
26
77
219
45
102
159
69
136
102
77
146
84
56
109
137
69
121
156
50
95
190
85
120
168
90
133
124
88
149
82
91
155
66
84
154
62
89
155
66
84
155
63
85
155
69
86
156
69
83
153
65
84
155
63
85
156
64
83
157
60
67
132
101
8
58
220
9
62
216
5
56
231
1
55
228
48
110
139
117
169
63
102
152
107
27
85
170
54
98
175
7
59
222
8
61
220
6
64
225
0
48
212
74
119
180
0
49
221
12
59
225
8
60
221
8
60
221
9
60
222
8
60
220
8
59
227
8
61
220
9
60
223
6
59
223
20
71
208
17
71
212
4
58
224
60
120
132
86
148
86
76
147
78
77
146
88
16
69
209
70
137
119
59
118
121
74
143
86
80
152
76
83
150
73
83
155
70
84
155
63
86
156
65
84
157
65
82
154
66
86
157
66
83
156
62
84
157
66
84
154
66
84
154
63
83
153
64
85
155
66
83
156
65
81
154
62
84
155
65
84
155
63
84
156
64
85
155
67
84
156
66
86
157
62
85
155
65
81
154
64
80
153
63
81
153
64
83
152
64
81
154
64
83
155
64
81
154
70
62
130
112
59
124
126
58
121
129
62
124
121
12
64
209
29
86
168
54
119
145
39
96
176
20
69
200
0
53
232
3
57
222
8
58
217
8
60
221
10
61
220
5
55
221
25
80
207
31
84
188
19
72
198
13
65
212
5
58
224
7
59
224
5
57
224
6
59
225
27
77
192
79
138
106
101
159
62
85
157
65
84
156
65
84
156
64
86
156
64
84
155
63
86
157
64
83
156
64
82
156
63
84
158
68
76
146
76
65
133
102
44
103
158
16
70
208
58
123
128
85
157
64
83
155
64
81
157
67
96
156
70
45
106
160
0
50
225
8
61
220
9
60
222
4
57
223
9
60
220
8
60
220
8
60
221
8
60
221
8
60
221
9
61
222
9
61
222
8
60
221
7
59
222
25
78
189
61
128
127
41
98
159
4
53
233
1
54
233
40
94
164
48
104
153
25
77
179
32
87
179
82
157
70
83
155
66
85
155
63
85
154
64
82
154
67
82
154
66
84
157
62
85
155
65
82
154
66
84
156
65
83
156
62
84
157
64
88
156
63
85
157
65
84
154
67
84
156
65
84
156
62
86
156
67
84
157
64
90
156
70
85
154
63
84
155
63
80
153
66
85
159
60
70
139
87
82
155
63
82
157
59
84
156
64
80
154
65
82
152
63
88
159
65
77
144
77
25
78
197
6
55
228
7
57
225
5
58
223
8
61
221
63
130
105
82
153
75
15
69
203
11
63
228
7
59
224
8
61
220
8
59
214
9
61
211
11
65
218
11
62
222
25
79
215
3
55
220
5
59
226
8
60
224
8
61
220
8
59
227
8
60
220
8
60
221
9
60
224
10
65
217
12
66
207
82
137
120
95
156
70
84
156
64
84
155
63
97
156
73
128
161
90
121
160
88
98
157
75
80
154
66
84
156
66
84
156
62
85
160
56
87
161
57
36
89
162
91
166
60
86
157
64
85
156
65
80
150
70
78
150
77
79
148
78
62
126
130
8
58
225
9
61
222
9
61
222
9
61
222
9
61
222
9
61
222
8
60
221
8
60
221
8
60
221
8
60
221
8
60
221
11
63
218
63
129
119
38
97
164
78
151
79
35
91
166
60
124
119
82
155
68
86
161
65
90
166
60
87
161
55
84
153
64
80
153
61
83
153
66
84
155
64
83
156
61
87
156
65
95
159
70
112
160
80
115
160
82
121
163
82
121
159
82
123
159
83
115
162
83
113
160
79
126
161
89
123
159
87
109
158
79
86
155
68
98
158
74
104
158
77
87
158
68
98
156
73
92
159
69
85
146
95
77
150
76
102
159
73
107
160
79
87
156
69
83
154
63
84
155
66
87
158
66
88
159
68
84
154
71
55
121
132
4
54
227
7
61
219
7
59
224
55
121
127
21
72
202
7
59
224
8
60
219
9
61
221
10
64
221
9
61
214
8
60
215
9
62
221
9
61
222
8
60
223
9
61
223
9
61
222
9
61
223
9
61
222
9
61
222
9
61
222
9
61
222
9
61
222
9
61
223
8
61
223
12
64
217
68
128
122
97
160
68
102
159
72
98
158
73
138
159
93
156
165
105
116
157
85
80
154
61
83
154
63
78
148
77
38
92
148
67
134
94
84
159
58
83
154
65
85
154
66
81
153
64
73
144
88
10
60
205
33
91
173
67
131
110
23
78
200
9
61
222
9
61
222
9
61
222
9
61
222
9
61
222
9
61
222
9
61
222
9
61
222
9
61
222
9
61
222
9
62
221
6
60
224
18
67
207
66
131
115
79
148
75
84
157
62
80
152
71
85
158
64
90
156
68
87
156
71
82
156
62
91
157
64
89
160
57
90
156
62
86
160
66
108
157
77
143
155
117
62
102
175
80
105
174
162
164
119
168
166
108
166
166
105
166
167
107
160
165
105
159
165
103
155
163
99
153
164
98
136
159
93
151
164
103
163
165
107
149
164
99
157
165
102
141
162
93
139
163
95
126
162
85
151
163
99
157
163
103
98
159
75
113
160
76
88
156
70
83
156
67
85
156
65
75
141
89
41
99
160
6
56
229
8
61
220
11
63
222
11
63
219
8
59
224
9
61
222
9
61
222
9
62
222
9
61
222
10
59
216
8
60
215
9
62
221
9
61
222
9
61
222
9
61
222
9
61
222
9
61
222
9
61
222
9
61
222
9
61
222
9
61
222
9
61
222
9
61
222
9
61
225
6
59
222
51
120
131
135
163
93
138
164
95
102
157
74
141
166
97
150
162
99
144
165
100
113
160
84
81
155
64
81
155
64
73
145
90
75
142
98
69
134
100
81
154
65
84
158
60
81
150
76
65
131
103
58
120
140
15
66
213
4
56
224
8
60
222
9
61
222
9
61
222
9
61
222
8
60
221
9
61
222
9
61
222
9
61
222
9
61
222
9
61
222
9
61
222
9
61
223
15
70
211
15
69
207
46
110
139
83
157
54
84
150
87
71
140
91
68
130
113
74
143
90
88
155
66
88
157
66
117
164
85
55
92
182
68
107
167
26
86
173
103
156
86
105
141
119
8
55
223
26
74
205
144
143
130
155
162
101
172
165
110
175
165
110
172
166
110
169
166
109
169
168
113
150
168
110
167
168
113
174
166
112
171
168
113
175
164
111
174
166
112
174
166
111
171
166
111
176
165
110
176
166
113
164
165
107
142
167
91
128
161
88
91
160
61
85
154
70
79
146
88
18
76
197
32
88
178
11
65
213
12
66
218
9
61
222
9
61
222
9
61
222
9
61
222
9
61
222
9
62
222
9
61
223
10
58
215
8
59
214
8
61
221
8
60
221
8
60
221
8
60
221
8
60
221
8
60
221
8
60
221
8
60
221
8
60
221
8
60
221
9
61
222
9
61
222
9
62
223
7
58
226
60
130
113
137
160
86
166
164
103
149
164
99
157
166
104
153
162
102
145
164
98
138
162
91
92
158
69
83
155
65
72
142
82
82
157
65
76
147
79
88
159
65
68
131
105
22
75
187
10
63
220
10
62
219
8
60
224
9
61
222
8
60
221
8
60
221
8
60
221
9
61
222
8
60
221
8
60
221
9
61
222
9
61
222
8
60
221
8
60
221
9
61
222
5
58
224
54
120
138
124
158
96
147
170
94
38
97
143
12
64
212
45
98
170
23
81
174
66
126
135
83
147
88
77
133
102
57
110
124
69
121
142
85
132
127
76
124
141
92
148
91
113
159
79
76
122
162
42
80
200
157
154
121
170
167
113
173
166
111
168
168
110
128
159
86
137
171
103
153
175
126
165
170
114
167
168
113
171
163
107
173
165
106
170
164
104
172
160
103
175
168
112
172
165
110
167
163
110
163
167
107
129
164
80
83
121
116
101
174
56
84
154
84
18
71
201
12
62
220
12
67
211
29
89
174
8
60
220
8
60
221
8
60
221
8
60
221
8
60
221
8
60
221
8
60
221
8
60
221
8
60
222
9
58
215
8
59
213
8
60
221
9
61
222
8
60
221
8
60
221
9
61
222
9
61
222
9
61
222
8
60
221
9
61
222
9
61
222
9
61
222
9
61
222
9
61
222
8
60
224
12
73
199
140
161
106
173
165
110
168
166
110
164
162
107
133
168
109
140
164
98
148
163
100
98
157
75
79
152
64
82
155
65
80
152
65
82
154
66
77
147
78
12
64
212
7
62
224
9
61
221
9
61
222
8
60
221
9
61
222
9
61
222
9
61
222
8
60
221
9
61
222
9
61
222
9
61
222
8
60
221
12
65
222
9
61
221
9
61
223
9
61
222
8
58
224
67
111
153
105
144
97
123
143
142
22
66
206
39
82
199
43
84
193
18
69
206
18
69
199
19
73
200
64
113
151
76
126
145
144
155
113
132
145
116
163
168
103
138
160
99
156
167
98
78
109
149
37
82
195
163
161
116
168
168
105
172
164
112
153
164
106
157
179
142
182
202
211
173
175
134
175
169
119
174
174
130
175
187
165
177
179
141
184
194
179
182
199
191
146
160
104
166
165
108
157
164
104
112
157
75
65
141
85
25
84
183
18
69
202
49
112
127
4
54
231
14
69
204
40
96
164
20
76
195
9
61
219
9
61
222
9
61
222
8
60
221
8
60
221
8
60
221
8
60
221
8
61
222
9
61
223
9
59
215
9
59
215
9
62
221
9
61
222
9
61
222
9
61
222
9
61
222
9
61
222
9
61
222
9
61
222
9
61
222
9
61
222
9
61
222
9
61
222
9
61
222
9
62
221
9
56
227
35
80
194
144
153
122
173
169
105
143
159
96
164
165
110
154
162
96
149
162
95
102
159
72
81
154
68
80
154
64
86
155
68
90
167
57
29
86
167
10
61
223
10
61
221
9
61
222
9
61
222
9
61
222
9
61
222
9
61
222
9
61
222
9
61
222
9
61
222
9
61
222
9
61
222
9
61
222
9
61
222
9
61
222
9
61
222
10
60
225
7
60
221
23
76
202
151
154
129
144
147
128
169
163
116
159
157
126
159
156
116
29
72
197
3
55
227
2
55
221
4
59
213
5
58
227
14
63
219
32
77
205
188
178
104
168
164
113
168
163
112
170
168
106
158
160
110
173
165
108
173
165
115
165
165
103
148
166
109
142
166
108
119
170
111
184
200
200
184
204
203
187
203
206
189
207
208
188
204
203
180
199
197
183
198
203
171
192
177
137
165
97
113
160
79
103
158
74
86
158
65
32
87
165
8
63
222
26
81
185
55
114
155
40
100
159
25
81
187
10
63
219
9
61
223
9
61
222
9
61
222
9
61
222
9
61
222
9
61
222
9
61
222
8
61
222
9
61
222
10
59
215
8
59
215
8
61
220
8
60
221
8
60
221
8
60
221
8
60
221
8
60
221
8
60
221
8
60
221
8
60
221
8
60
221
8
60
221
9
61
222
8
60
221
8
60
221
8
62
218
5
58
228
62
98
187
106
123
153
132
161
89
158
164
107
169
165
112
149
165
104
94
146
96
69
138
92
62
127
111
68
137
96
26
79
177
7
60
229
8
60
220
8
60
221
9
61
222
8
60
221
8
60
221
8
60
221
8
60
221
8
60
221
8
60
221
8
60
221
8
60
221
8
60
221
8
60
221
8
60
221
8
60
221
9
60
221
9
63
213
16
64
220
156
153
131
174
168
104
172
165
109
172
165
110
172
167
107
176
165
111
194
180
100
121
132
142
142
147
142
189
174
114
88
107
161
74
107
155
133
142
134
178
166
109
175
167
109
170
165
108
142
140
137
166
165
112
175
168
106
171
168
109
173
166
108
176
167
113
161
161
109
136
161
88
125
177
111
165
193
178
181
202
198
184
205
203
180
200
207
172
195
188
184
201
206
145
188
147
80
153
61
79
154
61
96
157
74
90
160
65
78
149
101
3
50
232
3
56
222
32
91
189
6
56
228
9
61
223
9
61
221
9
61
222
9
61
222
8
60
221
9
61
222
9
61
222
9
61
222
9
61
222
9
61
222
9
61
223
9
60
215
8
59
215
9
63
222
9
61
222
8
60
221
8
60
221
8
60
220
8
60
221
8
61
221
8
60
222
8
60
221
8
60
221
8
60
221
8
60
221
8
60
221
8
60
221
6
63
220
11
59
224
2
58
223
54
88
186
87
132
136
115
164
61
172
165
113
142
155
110
23
72
208
10
64
215
8
59
225
14
64
212
48
111
149
9
58
223
9
60
222
10
61
219
8
61
220
8
61
220
8
60
221
9
61
222
8
60
221
8
60
221
9
61
222
8
60
221
8
60
221
9
61
222
8
60
221
8
60
221
9
61
222
10
61
222
0
53
226
140
145
143
172
163
114
171
167
107
172
165
110
172
165
110
174
166
111
173
165
112
172
166
107
175
167
113
175
164
111
171
167
112
169
162
117
177
173
107
69
94
165
182
173
117
173
166
109
174
167
109
143
151
142
47
85
194
76
95
164
174
174
118
183
176
111
178
168
109
165
162
112
156
166
103
99
155
72
101
155
73
111
164
91
103
161
98
104
165
96
105
163
84
107
165
110
88
158
77
80
155
64
82
155
63
84
155
59
86
158
66
36
92
169
6
60
227
11
65
218
9
59
225
9
60
223
8
60
222
8
60
221
9
61
222
8
60
221
8
60
221
8
60
221
8
60
221
8
60
221
8
60
221
8
61
222
9
60
222
9
59
215
9
59
215
8
61
220
9
61
222
8
60
221
9
61
222
10
62
221
9
61
220
10
61
221
9
62
219
9
61
222
9
61
222
8
60
221
8
60
221
8
60
221
8
60
221
9
60
222
8
60
221
8
63
223
17
64
216
16
57
214
62
124
136
153
169
98
105
141
103
17
65
214
9
60
228
14
68
208
11
63
216
18
68
203
25
82
200
9
62
221
5
58
225
8
59
228
10
61
221
9
61
222
9
61
222
9
61
222
9
61
222
8
60
221
9
61
222
9
61
222
9
61
222
9
61
222
9
61
222
9
61
222
6
59
222
82
107
166
185
170
109
172
166
111
172
165
111
173
166
111
173
166
111
172
165
110
172
165
110
172
165
110
173
166
111
173
166
111
173
166
111
171
167
109
175
164
111
160
161
128
50
87
185
174
166
114
175
165
108
178
166
111
145
147
127
149
153
134
21
65
195
0
43
223
18
69
214
138
154
122
134
160
87
90
154
66
147
166
97
142
167
99
84
144
84
79
152
70
105
156
80
97
155
76
96
155
69
85
152
69
79
148
75
73
142
92
52
113
133
40
102
166
6
57
224
8
60
222
8
60
221
9
61
222
9
61
222
8
60
221
9
61
222
9
61
222
9
61
222
8
60
221
8
60
221
9
61
222
9
61
222
8
61
222
8
60
222
9
59
215
8
59
215
8
61
220
9
61
222
9
61
222
9
61
222
9
61
221
12
67
213
10
64
215
8
61
224
9
61
221
9
61
222
9
61
222
8
60
221
9
61
222
9
61
222
8
60
221
8
60
221
9
61
219
7
62
225
10
60
219
18
72
204
84
153
62
97
158
74
28
80
179
32
92
172
52
112
135
7
59
228
15
68
214
24
81
186
36
90
180
56
118
140
19
74
206
7
60
222
8
61
221
9
61
222
8
60
221
8
60
221
8
60
221
8
60
221
8
60
221
8
60
221
9
61
222
8
60
221
9
61
222
5
59
223
128
139
152
174
167
111
172
165
110
173
166
111
174
166
111
173
167
111
173
165
110
173
166
111
173
166
111
173
166
111
173
166
111
173
166
111
173
164
110
169
164
110
180
171
106
88
112
169
137
143
138
172
165
107
171
166
110
179
168
105
185
174
116
24
68
206
9
61
223
10
61
222
15
64
214
89
136
109
107
161
74
108
159
70
95
127
132
12
67
210
19
72
198
95
161
74
104
159
77
84
155
61
34
90
164
48
108
155
13
68
211
7
59
224
17
68
214
7
60
221
9
61
222
9
61
222
8
60
221
9
61
222
8
60
221
8
60
221
8
60
221
8
60
221
9
61
222
9
61
222
8
60
221
8
60
221
8
60
221
8
61
222
9
59
215
8
60
213
8
60
222
8
60
222
8
60
221
8
60
221
8
60
222
8
59
223
8
60
223
8
60
222
8
60
221
8
60
221
8
60
221
8
60
221
8
60
221
8
60
221
8
60
221
8
60
221
8
61
221
9
60
222
9
60
221
7
60
225
6
55
224
49
114
146
69
133
113
82
150
64
44
103
137
25
82
183
8
63
218
11
60
221
3
56
224
1
53
227
7
59
222
10
62
220
9
61
221
9
61
222
8
60
221
8
60
221
8
60
221
8
60
221
8
60
221
8
60
221
8
60
221
9
61
221
11
64
219
5
58
224
118
137
147
166
163
106
167
166
109
172
166
110
173
164
111
165
166
109
170
165
109
171
167
109
171
165
108
165
165
108
171
167
110
172
166
110
170
167
110
169
165
109
167
164
108
150
157
119
48
84
187
188
179
108
161
157
121
125
134
149
12
60
211
9
62
225
9
60
221
9
60
221
6
58
230
64
108
152
158
169
97
76
128
121
5
60
220
9
60
221
2
57
227
49
109
145
81
148
74
105
163
74
78
145
91
6
59
216
8
61
220
8
59
223
64
131
109
4
58
227
8
60
223
8
61
221
8
60
221
8
60
221
8
60
221
8
60
221
8
60
221
8
60
221
8
60
221
8
60
221
8
60
221
8
60
221
8
61
222
9
60
222
10
60
215
9
59
213
9
61
222
9
61
222
9
61
222
9
61
222
9
61
222
9
61
222
9
61
222
9
61
222
9
61
222
9
61
222
9
61
222
9
61
222
9
61
222
9
61
222
9
61
222
9
61
222
9
61
222
9
61
222
9
61
222
9
62
224
9
61
223
7
59
224
7
55
227
15
69
208
30
86
166
76
144
87
7
61
223
7
57
227
24
81
193
23
75
189
5
54
229
4
53
224
9
60
222
9
61
222
9
61
222
9
61
222
9
61
222
9
61
222
9
61
222
9
61
222
9
61
222
9
61
222
9
61
222
8
60
221
69
122
134
101
163
65
121
159
85
153
165
106
134
158
93
135
157
91
132
161
89
135
161
89
140
163
90
134
162
90
141
162
92
144
166
96
145
164
95
141
163
93
143
164
98
96
152
80
128
151
116
41
74
188
35
75
196
30
75
206
8
61
219
10
60
223
9
61
222
9
61
222
11
62
219
21
75
199
134
165
81
37
79
193
7
59
225
9
61
222
17
71
218
9
60
220
52
111
147
55
115
132
98
172
42
41
100
169
8
59
224
10
60
224
24
80
190
31
83
182
10
63
221
9
62
219
9
61
222
9
61
222
9
61
222
8
60
221
9
61
222
9
61
222
9
61
222
9
61
222
9
61
222
9
61
222
9
61
222
9
61
222
10
59
215
9
60
213
9
61
222
9
61
222
9
61
222
9
61
222
9
61
222
9
61
222
9
61
222
9
61
222
9
61
222
9
61
222
9
61
222
9
61
222
9
61
222
9
61
222
9
61
222
9
61
222
9
61
222
9
61
222
9
61
222
9
61
223
9
61
221
9
61
222
9
61
221
8
62
222
5
56
235
32
93
171
30
87
176
33
92
157
83
155
61
76
140
74
70
135
63
75
141
77
27
82
182
6
60
226
8
59
227
10
61
220
9
61
222
9
61
222
9
61
222
9
61
222
9
61
222
9
61
222
9
61
222
9
61
224
0
49
233
70
128
117
91
155
69
125
163
80
102
160
76
102
157
74
100
159
73
98
158
72
91
154
69
95
157
70
88
154
65
93
157
68
91
155
65
82
152
65
88
154
67
89
157
68
136
162
89
179
170
117
198
184
108
5
56
214
8
60
225
9
61
221
9
61
222
9
61
221
9
61
224
10
64
213
96
125
162
22
85
171
8
61
222
9
61
222
9
62
221
12
64
214
36
90
173
10
62
220
28
83
185
3
53
229
8
59
223
13
67
211
10
59
218
46
106
152
13
67
209
8
61
223
9
61
222
9
61
222
9
61
222
9
61
222
9
61
222
9
61
222
9
61
222
9
61
222
9
61
222
9
61
222
9
61
222
9
61
223
10
60
215
9
59
213
8
61
221
8
60
221
8
60
221
8
60
221
8
60
221
8
60
221
8
60
221
8
60
221
9
61
222
8
60
221
8
60
221
8
60
221
8
60
221
8
60
221
8
60
221
8
60
221
8
60
221
8
60
221
8
60
221
8
60
221
8
60
221
8
60
221
8
60
221
8
61
220
9
61
223
8
59
223
10
65
214
36
94
159
90
159
63
69
132
42
74
138
48
73
136
42
75
139
52
58
121
101
31
91
165
7
59
228
9
60
220
8
60
221
8
60
221
8
60
221
8
60
221
8
60
221
8
60
221
8
60
221
7
62
221
9
63
213
58
120
133
45
101
142
38
95
149
28
84
190
61
120
133
79
141
97
85
157
63
79
150
57
78
148
59
77
148
58
78
150
58
80
149
61
115
157
78
136
164
92
157
164
104
181
171
106
70
102
177
4
58
223
8
60
221
8
60
221
8
60
221
8
60
221
8
60
221
9
61
221
3
56
225
25
75
194
8
61
221
8
60
221
9
61
224
20
77
193
27
80
181
63
131
115
8
58
229
8
59
222
25
78
204
60
126
117
13
64
212
16
68
207
10
64
216
7
62
220
8
60
221
8
60
221
8
60
221
8
60
221
8
60
221
8
60
221
8
60
221
8
60
221
8
60
221
8
60
221
8
60
221
8
60
222
9
58
215
9
60
213
9
61
221
9
61
222
9
61
222
9
61
222
9
61
222
9
61
222
9
61
222
9
61
222
9
61
222
9
61
222
9
61
222
9
61
222
9
61
222
9
61
222
9
61
222
9
61
222
9
61
222
9
61
222
9
61
222
9
61
222
9
61
222
9
61
222
9
61
222
10
61
223
9
62
219
9
61
222
10
62
215
77
137
105
73
138
49
73
138
45
71
136
49
75
142
53
70
134
46
69
133
41
83
154
53
11
58
222
8
61
222
8
60
224
9
61
222
9
61
222
9
61
223
9
61
222
9
61
222
9
61
222
8
61
221
9
61
222
6
54
232
6
59
226
7
60
226
10
60
222
4
55
235
22
78
184
83
151
63
79
148
56
69
131
43
70
129
42
69
131
43
72
139
57
103
150
79
157
164
101
152
163
98
75
120
143
8
61
217
9
61
223
9
61
222
9
61
222
9
61
222
9
61
222
9
61
222
9
61
222
9
62
221
9
61
220
9
61
222
9
61
222
10
60
220
10
67
216
62
127
119
53
116
126
11
64
216
27
87
174
75
152
61
65
132
93
16
72
204
17
68
212
21
75
199
12
62
223
10
62
221
7
59
224
9
60
223
9
61
223
8
61
221
9
61
223
9
61
222
9
61
222
9
61
222
9
61
222
8
61
222
9
61
222
10
60
215
8
60
213
9
61
222
9
61
223
9
61
222
9
61
222
9
61
222
9
61
222
9
61
222
9
61
222
9
61
222
9
61
222
9
61
222
9
61
222
9
61
222
9
61
222
9
61
222
9
61
222
9
61
222
9
61
222
9
61
222
9
61
222
9
61
222
9
61
222
9
61
222
10
62
220
9
62
219
7
59
226
39
98
159
103
166
74
70
133
41
71
134
45
71
130
43
73
133
45
71
133
44
71
134
45
71
138
48
74
135
76
53
114
130
23
76
195
4
59
226
9
61
219
9
60
227
10
61
219
9
61
222
9
61
222
9
61
222
9
61
222
9
61
222
9
61
222
9
61
222
9
61
222
8
61
226
28
83
177
80
149
54
71
139
51
71
130
39
72
129
38
68
130
40
76
139
60
86
143
79
126
159
86
49
98
163
4
59
222
9
60
226
8
61
220
9
61
222
9
61
222
9
61
222
9
61
222
9
61
222
9
61
222
9
61
222
9
61
222
9
61
222
9
61
222
9
61
222
8
61
219
17
70
205
73
151
61
33
92
173
32
95
156
81
160
56
46
115
126
61
126
116
9
62
213
22
74
201
32
88
179
35
90
166
52
123
115
14
67
206
4
56
225
15
68
220
8
58
224
9
61
220
9
61
222
9
61
222
9
61
222
9
61
222
9
61
223
8
59
215
8
59
214
8
60
221
8
60
221
8
60
221
8
60
221
8
60
221
8
60
221
8
60
221
8
60
221
8
60
221
8
60
221
8
60
221
8
60
221
9
61
222
9
61
222
8
60
221
8
60
221
8
60
221
8
60
221
8
60
221
9
61
222
9
61
222
8
60
221
9
61
222
9
61
222
9
61
225
7
58
226
61
122
138
85
149
57
69
133
47
72
135
44
70
133
43
70
133
42
71
134
45
70
133
44
70
132
41
67
128
42
74
143
48
86
156
40
71
125
103
23
72
204
8
62
217
8
60
223
8
60
221
8
60
221
8
60
221
8
60
221
8
60
221
8
60
221
9
61
222
8
60
221
8
60
225
7
60
221
62
129
107
82
151
59
73
138
48
72
137
49
77
145
52
76
139
74
114
160
77
107
149
99
13
67
215
9
59
224
8
62
214
10
59
226
8
60
221
8
60
221
8
60
221
9
61
222
8
60
221
8
60
221
8
60
221
8
60
221
8
60
221
8
60
221
8
61
220
9
61
217
9
60
222
18
72
200
30
89
165
13
66
211
6
59
213
14
63
219
30
88
174
14
70
208
7
61
215
9
61
219
28
86
183
75
146
87
80
161
33
50
114
134
9
59
201
32
87
189
11
63
218
8
61
220
8
60
221
8
60
221
8
60
221
8
60
222
8
59
215
9
59
215
9
61
224
9
61
223
9
61
222
9
61
222
9
61
222
9
61
222
9
61
222
9
61
222
9
61
222
9
61
222
9
61
222
9
61
222
9
61
222
9
61
222
9
61
222
9
61
222
9
61
222
9
61
222
9
61
222
9
61
222
9
61
222
9
61
222
9
61
222
9
61
222
9
61
222
9
61
221
0
55
222
124
152
144
74
141
49
70
133
41
70
133
44
70
133
44
70
133
42
70
133
44
72
132
44
72
134
46
75
143
50
89
149
65
101
162
55
22
72
202
10
61
221
9
61
223
9
61
222
9
61
222
9
61
222
9
61
222
9
61
222
9
61
222
9
61
222
9
61
222
9
61
222
7
58
225
45
105
160
84
157
58
76
148
54
77
147
57
79
148
56
81
150
70
98
152
77
79
145
76
14
69
207
12
60
218
7
60
223
10
61
222
9
61
222
9
61
222
9
61
222
9
61
222
9
61
222
8
60
221
9
61
222
9
61
222
9
61
222
9
61
222
9
61
222
9
61
222
10
60
225
7
61
217
15
69
209
16
70
201
17
68
207
16
69
200
17
68
203
24
80
187
12
64
215
0
55
221
0
52
232
19
72
197
30
91
163
25
81
181
37
97
171
8
58
225
13
63
219
18
74
205
10
63
219
9
61
222
8
61
222
9
61
223
10
59
215
9
59
214
8
62
219
10
62
222
8
60
222
9
61
222
9
61
222
9
61
222
9
61
222
9
61
222
9
61
222
9
61
222
9
61
222
9
61
222
9
61
222
9
61
222
9
61
222
9
61
222
9
61
222
9
61
222
9
61
222
9
61
222
9
61
222
9
61
222
9
61
222
9
61
222
9
61
222
9
61
222
12
60
222
44
94
206
130
172
116
94
153
76
68
131
42
70
132
43
70
133
42
71
134
45
72
134
47
71
133
44
83
146
62
91
151
59
32
88
163
7
60
226
8
62
221
10
61
222
9
61
222
9
61
222
9
61
222
9
61
222
9
61
222
9
61
222
9
61
222
9
61
222
9
61
222
8
60
224
42
88
177
91
160
54
86
152
63
97
151
70
82
152
62
85
153
62
81
144
89
81
154
59
25
80
187
9
61
227
42
93
177
4
57
224
9
61
222
9
61
222
9
61
222
9
61
222
9
61
222
9
61
222
9
61
222
9
61
222
9
61
222
9
61
222
9
61
222
9
61
222
9
62
220
9
61
223
9
61
222
8
62
221
9
62
220
8
60
225
9
62
219
6
57
226
9
63
214
93
137
143
84
127
133
0
53
217
45
105
150
4
58
227
6
55
223
9
63
220
8
63
223
8
60
223
9
60
222
11
64
219
9
61
223
9
61
222
9
59
216
9
61
215
8
61
221
9
62
222
9
61
222
9
61
222
9
61
222
9
61
222
9
61
223
9
62
220
10
62
222
9
61
222
9
61
222
9
61
222
9
61
222
9
61
222
9
61
222
9
61
222
9
61
222
9
61
222
9
61
222
9
61
222
9
61
222
9
61
222
9
61
222
9
61
222
9
61
222
9
61
222
9
61
223
11
62
219
63
101
192
182
200
176
109
161
97
69
136
43
71
134
44
71
132
45
82
141
56
84
141
56
83
144
59
74
139
61
17
71
202
9
61
222
9
61
222
9
61
222
9
61
222
9
61
222
9
61
222
9
61
222
9
61
222
9
61
222
9
61
222
9
61
222
8
62
223
9
61
221
124
143
132
146
162
100
138
163
92
150
163
101
122
155
86
116
158
82
87
152
67
75
145
77
10
64
209
72
115
161
93
143
95
1
52
233
9
61
224
9
61
222
9
61
222
9
61
222
9
61
222
9
61
222
9
61
222
9
61
222
9
61
222
9
61
222
9
61
222
9
61
222
9
61
222
9
61
222
9
61
222
8
63
221
8
62
224
8
62
222
0
50
228
75
125
134
147
153
118
170
168
107
167
169
101
66
115
138
127
154
110
61
109
155
4
58
224
10
61
221
9
61
222
9
61
222
7
61
221
14
67
216
10
62
220
10
63
219
19
72
200
10
59
215
10
63
220
8
61
222
9
61
222
9
61
222
9
61
222
9
61
222
9
60
222
9
62
219
9
61
222
9
61
222
9
61
222
9
61
222
9
61
222
9
61
222
9
61
222
9
61
222
9
61
222
9
61
222
9
61
222
8
60
221
9
61
222
8
60
221
9
61
222
9
61
222
9
61
222
9
61
222
9
61
221
9
61
222
7
57
233
62
101
192
180
204
181
72
143
49
71
137
47
71
135
45
84
145
58
84
143
58
81
147
52
71
140
81
14
67
211
9
61
222
9
61
222
9
61
222
9
61
222
9
61
222
9
61
222
9
61
222
9
61
222
9
61
222
9
61
222
9
61
222
9
62
221
5
58
226
100
122
167
166
166
102
156
164
100
162
164
106
167
165
109
148
167
94
88
147
89
1
51
232
0
53
233
99
140
114
48
99
159
9
59
224
9
61
220
8
62
220
9
61
222
9
61
222
9
61
222
9
61
222
9
61
222
9
61
222
9
61
222
9
61
222
9
61
222
9
61
222
9
61
222
9
61
222
9
61
222
9
60
224
11
63
215
31
78
195
77
115
155
172
171
93
172
167
108
173
165
111
172
166
113
178
171
106
182
168
111
119
150
105
21
73
200
9
59
225
9
61
222
9
61
222
14
65
215
11
64
220
9
61
222
9
61
223
11
60
210
9
59
214
9
61
221
9
61
222
8
60
221
8
60
221
9
61
222
9
61
222
8
60
221
9
61
222
8
60
221
8
60
221
8
60
221
8
60
221
8
60
221
8
60
221
8
60
221
8
60
221
8
60
221
8
60
221
8
60
221
8
60
221
8
60
221
8
60
221
9
61
222
9
61
222
8
60
221
8
60
221
8
60
221
8
60
221
4
59
222
82
111
185
177
201
177
74
147
50
79
147
57
77
145
57
80
149
60
75
146
62
40
100
143
22
76
200
8
61
221
8
60
221
8
60
221
8
60
221
9
61
222
9
61
222
8
60
221
8
60
221
8
60
221
8
60
221
8
60
221
8
60
221
8
60
221
8
60
222
0
54
220
175
173
114
158
166
102
161
165
105
163
167
107
144
162
96
75
141
100
2
52
230
0
45
230
129
166
100
26
81
189
8
60
223
8
61
220
8
60
221
8
60
221
9
61
222
8
60
221
8
60
221
8
60
221
8
60
221
8
60
221
8
60
221
8
60
221
8
60
221
8
60
221
8
60
221
8
60
221
5
58
223
61
114
152
159
166
104
173
169
109
176
166
111
172
165
109
174
166
111
174
165
111
172
168
112
174
166
109
172
167
111
127
157
106
9
61
207
8
60
222
8
60
221
11
63
219
11
65
213
8
61
222
8
60
222
8
59
216
8
59
213
8
61
221
8
60
222
8
60
221
8
60
221
9
61
222
9
61
222
9
61
222
9
61
222
8
60
221
8
60
221
8
60
221
8
60
221
8
60
221
8
60
221
9
61
222
9
61
222
8
60
221
8
60
221
8
60
221
9
61
222
9
61
222
9
61
222
8
60
221
8
60
221
8
60
221
8
60
221
9
61
222
9
61
222
0
56
225
111
133
176
134
175
112
80
154
59
80
152
65
86
154
69
87
156
57
52
117
130
5
56
233
8
62
221
8
61
223
8
61
221
9
61
222
9
61
222
9
61
222
9
61
222
9
61
222
9
61
222
9
61
222
8
60
221
9
61
222
9
61
222
8
60
221
9
61
222
0
52
229
137
149
142
161
165
103
163
165
107
160
164
104
120
155
94
10
63
208
9
63
222
10
63
219
6
52
226
7
60
228
10
60
221
9
61
222
9
61
222
9
61
222
9
61
222
9
61
222
9
61
222
9
61
222
9
61
222
9
61
222
9
61
222
8
60
221
8
60
221
9
61
222
9
61
222
9
61
222
8
59
224
62
109
168
164
167
96
174
166
111
174
166
112
174
167
111
174
167
109
162
166
106
146
160
98
172
166
110
175
166
110
174
167
115
80
137
115
6
58
225
9
61
222
8
60
223
9
61
221
8
60
222
8
61
222
8
59
215
9
60
213
9
61
222
9
61
222
9
61
222
9
61
222
8
60
221
8
60
221
9
61
222
9
61
222
9
61
222
9
61
222
9
61
222
9
61
222
9
61
222
9
61
222
9
61
222
9
61
222
9
61
222
9
61
222
9
61
222
9
61
222
9
61
222
9
61
222
9
61
222
9
61
222
9
61
222
9
61
222
9
61
222
9
61
222
0
48
226
135
165
140
144
163
95
109
158
78
107
158
80
112
163
70
68
134
97
12
64
214
9
60
224
9
61
221
9
61
222
9
61
222
9
61
222
9
61
222
9
61
222
9
61
222
9
61
222
9
61
222
9
61
222
9
61
222
9
61
222
9
61
222
9
61
222
9
61
222
10
59
222
30
76
204
157
160
116
168
164
101
168
178
93
59
105
154
8
61
220
9
61
222
9
61
222
9
61
222
9
61
222
9
61
222
9
61
222
9
61
222
9
61
222
9
61
222
9
61
222
9
61
222
9
61
222
9
61
222
9
61
222
9
61
222
9
61
222
9
61
222
9
61
222
9
61
222
9
62
222
8
62
223
5
54
221
136
160
92
159
167
96
159
168
91
140
167
101
118
148
111
133
165
85
138
165
88
158
164
103
168
165
108
170
170
108
71
128
122
6
58
225
9
61
222
9
61
221
9
61
222
9
62
220
9
62
223
10
58
215
9
59
213
9
61
222
9
61
222
9
61
222
9
61
222
9
61
222
9
61
222
9
61
222
9
61
222
9
61
222
9
61
222
9
61
222
9
61
222
9
61
222
9
61
222
9
61
222
9
61
222
9
61
222
9
61
222
9
61
222
9
61
222
9
61
222
9
61
222
9
61
222
9
61
222
9
61
222
9
61
222
9
61
222
9
61
223
2
55
226
118
166
90
150
165
99
131
160
86
93
157
66
76
133
107
19
71
205
9
61
221
10
61
221
9
61
222
9
61
222
9
61
222
9
61
222
9
61
222
9
61
222
9
61
222
9
61
222
9
61
222
9
61
222
9
61
222
9
61
222
9
61
222
9
61
222
9
61
222
11
61
221
12
66
216
89
127
142
93
132
145
34
88
172
1
54
230
8
62
223
9
61
222
9
61
222
9
61
222
9
61
222
9
61
222
9
61
222
9
61
222
9
61
222
9
61
222
9
61
222
9
61
222
9
61
222
9
61
222
9
61
222
9
61
222
9
61
222
9
61
222
9
61
222
9
61
222
9
61
222
9
62
222
2
52
226
79
139
118
64
125
125
55
100
183
0
48
230
0
52
231
53
115
150
87
122
131
130
163
84
162
168
103
117
159
83
1
56
227
9
61
223
9
61
222
9
61
222
9
61
222
7
60
223
16
70
214
9
58
215
9
59
215
8
60
222
8
60
222
8
60
221
8
60
221
8
60
221
8
60
221
8
60
221
8
60
221
8
60
221
8
60
221
8
60
221
8
60
221
8
60
221
8
60
221
8
60
221
8
60
221
8
60
221
8
60
221
8
60
221
8
60
221
8
60
221
8
60
221
8
60
221
8
60
221
8
60
221
8
60
221
8
60
221
7
58
224
36
102
149
126
163
81
110
155
77
103
160
67
78
138
107
9
60
218
7
60
223
8
61
221
8
60
222
8
60
221
8
60
221
8
60
221
8
60
221
8
60
221
8
60
221
8
60
221
8
60
221
8
60
221
8
60
221
8
60
221
8
60
221
8
60
221
8
60
221
8
60
221
8
60
223
8
60
221
7
59
222
4
56
224
6
59
225
9
60
220
9
60
221
8
60
221
8
60
221
8
60
221
8
60
221
8
60
221
8
60
221
8
60
221
8
60
221
8
60
221
8
60
221
8
60
221
8
60
221
8
60
221
8
60
221
8
60
221
8
60
221
8
60
221
8
60
221
8
60
221
8
60
221
8
60
222
8
60
222
8
61
220
5
57
224
6
58
224
9
61
222
8
60
221
7
59
222
16
68
208
81
128
141
78
115
140
31
80
191
6
59
227
8
60
221
8
60
221
5
63
218
10
60
221
7
56
229
38
100
159
29
85
178
9
60
215
8
60
222
9
61
223
9
61
222
9
61
222
9
61
222
9
61
222
9
61
222
9
61
222
9
61
222
9
61
222
9
61
222
9
61
222
9
61
222
9
61
222
9
61
222
9
61
222
9
61
222
9
61
222
9
61
222
9
61
222
9
61
222
9
61
222
9
61
222
9
61
222
9
61
222
9
61
222
9
61
222
7
58
224
51
115
138
122
162
73
129
165
85
52
108
165
4
54
228
9
61
221
9
61
223
9
61
222
9
61
222
9
61
222
9
61
222
9
61
222
9
61
222
9
61
222
9
61
222
9
61
222
9
61
222
9
61
222
9
61
222
9
61
222
9
61
222
9
61
222
9
61
222
9
61
222
9
61
222
9
61
222
9
61
222
9
61
222
9
61
222
9
61
222
9
61
222
9
61
222
9
61
222
9
61
222
9
61
222
9
61
222
9
61
222
9
61
222
9
61
222
9
61
222
9
61
222
9
61
222
9
61
222
9
61
222
9
61
222
9
61
222
9
61
222
9
61
222
9
61
222
9
61
222
9
61
222
9
61
222
9
61
222
9
61
222
9
61
222
9
61
222
9
61
222
9
61
222
9
61
222
9
61
223
0
54
229
23
82
187
13
67
207
9
61
223
9
61
222
9
61
222
12
60
225
9
61
222
35
92
176
30
80
185
13
64
208
8
59
213
8
60
220
8
60
222
8
60
221
8
60
221
8
60
221
8
60
221
8
60
221
8
60
221
8
60
221
9
61
222
9
61
222
9
61
222
9
61
222
9
61
222
8
60
221
8
60
221
9
61
222
9
61
222
9
61
222
9
61
222
9
61
222
9
61
222
9
61
222
9
61
222
9
61
222
9
61
222
9
61
222
10
63
218
75
129
116
131
163
84
61
105
149
7
57
224
11
61
219
11
60
222
9
61
222
9
61
222
8
60
221
9
61
222
8
60
221
9
61
222
9
61
222
9
61
222
9
61
222
9
61
222
9
61
222
9
61
222
9
61
222
9
61
222
8
60
221
9
61
222
9
61
222
9
61
222
9
61
222
9
61
222
9
61
222
9
61
222
9
61
222
9
61
222
9
61
222
9
61
222
9
61
222
9
61
222
9
61
222
10
62
223
9
61
222
9
61
222
9
61
222
9
61
222
9
61
221
9
61
222
9
61
222
9
61
222
9
61
222
9
61
222
9
61
222
9
61
222
9
61
222
9
61
222
9
61
222
9
61
222
9
61
222
9
61
222
9
61
222
9
61
222
9
61
222
9
61
222
9
61
222
9
61
221
9
60
224
14
66
210
9
62
218
9
61
221
9
61
223
9
61
222
7
58
226
46
106
157
43
100
169
7
62
220
9
58
214
9
60
214
9
61
222
9
61
223
9
61
222
9
61
222
9
61
222
9
61
222
9
61
222
9
61
222
9
61
222
9
61
222
9
61
222
9
61
222
8
60
221
8
60
221
9
61
222
9
61
222
9
61
222
9
61
222
9
61
222
9
61
222
9
61
222
9
61
222
9
61
222
9
61
222
9
61
222
9
61
222
8
60
221
12
65
213
104
149
96
134
161
97
60
109
166
4
57
229
13
66
220
9
62
221
9
61
222
9
61
222
8
60
221
8
60
221
9
61
222
9
61
222
9
61
222
9
61
222
9
61
222
9
61
222
9
61
222
9
61
222
9
61
222
9
61
222
9
61
222
9
61
222
9
61
222
9
61
222
9
61
222
9
61
222
9
61
222
9
61
222
9
61
222
9
61
222
9
61
222
9
61
222
9
61
222
9
61
222
9
61
222
8
60
221
9
61
222
9
61
222
9
61
222
10
62
221
11
64
217
9
61
222
9
61
222
9
61
222
9
61
222
9
61
222
9
61
222
9
61
222
9
61
222
9
61
222
9
61
222
9
61
222
9
61
222
9
61
222
9
61
222
9
61
222
9
61
222
9
61
222
9
61
222
9
61
222
9
61
222
9
61
222
9
61
222
9
61
222
9
61
222
9
61
222
8
60
224
7
56
223
6
58
224
10
61
223
10
60
216
9
59
213
9
61
222
9
61
222
9
61
222
9
61
222
9
61
222
9
61
222
9
61
222
9
61
222
9
61
222
9
61
222
8
60
221
9
61
222
9
61
222
9
61
222
9
61
222
9
61
222
8
60
221
9
61
222
9
61
222
9
61
222
9
61
222
9
61
222
9
61
222
9
61
222
9
61
222
9
61
222
9
61
222
10
62
219
106
147
115
106
145
103
13
60
211
9
64
217
25
74
207
7
60
225
9
61
223
9
61
222
9
61
222
9
61
222
6
58
221
9
61
222
9
61
222
9
61
222
9
61
222
9
61
222
9
61
222
9
61
222
9
61
222
9
61
222
9
61
222
9
61
222
9
61
222
9
61
222
9
61
222
9
61
222
9
61
222
9
61
222
9
61
222
9
61
222
9
61
222
9
61
222
9
61
222
9
61
222
9
61
222
9
61
222
9
61
222
9
61
222
9
61
222
9
61
222
10
63
218
9
62
221
9
61
222
9
61
222
9
61
222
9
61
222
9
61
222
9
61
222
9
61
222
9
61
222
9
61
222
9
61
222
9
61
222
9
61
222
9
61
222
9
61
222
9
61
222
9
61
222
9
61
222
9
61
222
9
61
222
9
61
222
9
61
222
9
61
222
9
61
222
9
61
222
11
60
220
7
61
222
9
60
223
9
61
222
9
59
215
8
59
214
9
61
221
9
61
222
9
61
222
9
61
222
9
61
222
9
61
222
9
61
222
9
61
222
9
61
222
9
61
222
9
61
222
9
61
222
9
61
222
9
61
222
9
61
222
9
61
222
9
61
222
9
61
222
9
61
222
9
61
222
9
61
222
9
61
222
9
61
222
9
61
222
9
61
222
9
61
222
9
61
222
8
61
222
3
54
224
53
105
164
51
95
186
6
60
227
7
60
223
8
61
221
9
61
219
9
62
221
8
61
223
7
60
221
25
75
210
7
58
222
9
61
222
9
61
222
9
61
222
9
61
222
9
61
222
9
61
222
9
61
222
9
61
222
9
61
222
8
60
221
9
61
222
9
61
222
9
61
222
9
61
222
9
61
222
9
61
222
9
61
222
9
61
222
9
61
222
9
61
222
9
61
222
9
61
222
9
61
222
9
61
222
9
61
222
9
61
222
9
61
222
9
61
222
9
61
222
8
60
222
9
61
222
9
61
222
9
61
222
9
61
222
9
61
222
9
61
222
9
61
222
9
61
222
9
61
222
9
61
222
9
61
222
9
61
222
9
61
222
9
61
222
9
61
222
9
61
222
9
61
222
9
61
222
9
61
222
9
61
222
9
61
222
9
61
222
8
60
221
9
61
222
8
61
222
9
61
221
8
61
222
9
62
220
9
59
215
8
60
214
9
61
222
9
61
223
8
60
221
9
61
222
9
61
222
9
61
222
8
60
221
9
61
222
9
61
222
9
61
222
9
61
222
9
61
222
8
60
221
8
60
221
9
61
222
9
61
222
9
61
222
9
61
222
8
60
221
8
60
221
9
61
222
9
61
222
9
61
222
9
61
222
8
60
221
8
60
221
8
60
221
9
61
222
9
60
224
6
58
228
9
59
221
9
61
220
6
59
223
8
61
221
9
61
222
10
62
223
11
64
222
8
61
219
8
61
222
9
60
222
9
61
222
9
61
222
8
60
221
8
60
221
9
61
222
9
61
222
9
61
222
8
60
221
8
60
221
8
60
221
9
61
222
9
61
222
9
61
222
9
61
222
8
60
221
8
60
221
8
60
221
9
61
222
9
61
222
8
60
221
8
60
221
8
60
221
8
60
221
8
60
221
9
61
222
9
61
222
9
61
222
8
60
221
8
60
221
9
61
222
9
61
222
9
61
222
8
60
221
8
60
221
8
60
221
8
60
221
9
61
222
9
61
222
8
60
221
8
60
221
8
60
221
9
61
222
9
61
222
9
61
222
9
61
222
9
61
222
9
61
222
8
60
221
9
61
222
8
60
221
9
61
222
9
61
222
8
61
222
8
60
221
9
61
222
9
61
222
9
61
222
9
62
221
9
59
215
8
59
213
8
60
221
8
60
221
8
60
221
8
60
221
9
61
222
9
61
222
9
61
222
9
61
222
9
61
222
9
61
222
9
61
222
9
61
222
9
61
222
9
61
222
9
61
222
9
61
222
9
61
222
9
61
222
8
60
221
9
61
222
9
61
222
9
61
222
9
61
222
9
61
222
9
61
222
9
61
222
9
61
222
9
61
222
8
62
220
9
61
220
7
60
226
31
79
218
49
94
217
15
66
218
8
61
222
9
61
222
8
60
221
8
61
224
8
61
222
9
61
222
9
61
222
9
61
222
9
61
222
9
61
222
9
61
222
9
61
222
9
61
222
9
61
222
9
61
222
9
61
222
9
61
222
9
61
222
9
61
222
9
61
222
9
61
222
9
61
222
9
61
224
10
61
219
9
61
221
8
62
222
9
62
222
7
60
224
3
57
220
6
59
221
7
57
221
4
57
222
6
59
222
7
60
222
9
61
225
8
62
221
9
61
222
8
60
221
5
57
222
4
56
221
5
57
222
5
57
221
5
57
220
9
60
219
5
59
220
5
56
221
7
59
219
5
56
222
4
56
222
5
56
221
5
56
220
5
58
222
4
58
219
4
58
221
1
56
220
8
60
223
9
60
226
9
61
221
11
60
221
10
60
220
9
61
222
9
61
222
8
61
222
9
61
222
10
60
215
9
60
214
10
62
223
9
61
223
9
61
222
9
61
222
10
62
223
10
62
223
9
61
222
9
61
222
9
61
222
9
61
222
9
61
222
10
62
223
9
61
222
9
61
222
9
61
222
9
61
222
9
61
222
10
62
223
10
62
223
9
61
222
10
62
223
9
61
222
9
61
222
9
61
222
9
61
222
9
61
222
9
61
222
9
61
223
6
58
227
0
55
212
116
147
210
170
191
206
49
89
217
13
64
218
9
61
221
9
61
222
10
62
223
9
61
222
9
61
222
10
62
223
10
62
223
9
61
222
9
61
222
9
61
222
10
62
223
10
62
223
9
61
222
8
60
222
9
61
222
8
60
222
8
60
223
8
60
223
10
62
226
6
59
219
8
60
222
8
60
222
11
61
221
7
59
224
0
51
222
5
55
220
0
41
215
22
66
207
95
133
226
140
167
207
128
159
212
89
126
223
58
101
214
31
73
215
11
66
222
6
59
219
0
47
215
18
63
211
102
135
215
131
160
223
132
161
218
130
160
217
132
161
213
143
167
211
130
161
214
128
162
216
126
152
209
110
142
223
118
148
223
130
161
216
124
155
228
136
164
210
135
163
209
130
159
215
135
167
233
27
72
202
0
45
217
0
45
211
0
49
223
2
57
222
13
66
227
6
58
221
9
61
222
9
61
223
11
60
216
8
60
214
9
61
222
9
61
222
9
61
222
9
61
222
8
61
221
8
61
222
9
61
222
9
61
223
9
61
222
8
61
222
8
60
223
5
58
221
3
56
222
4
57
221
4
57
221
3
56
221
3
56
220
3
55
221
5
59
221
6
58
221
19
70
219
27
75
219
20
70
219
16
66
221
13
64
219
7
60
222
7
60
220
21
70
219
61
104
210
187
202
217
174
191
209
170
195
204
27
78
216
8
61
223
8
61
222
9
61
222
9
61
221
8
60
221
9
61
222
9
61
222
9
61
221
9
61
222
3
56
222
8
61
219
18
69
219
27
75
219
40
83
216
49
95
216
37
84
216
49
94
219
55
97
213
58
100
210
56
98
208
68
109
213
54
97
213
54
98
213
52
95
218
68
111
206
145
172
213
98
135
209
189
211
209
206
221
209
195
212
201
188
204
208
189
205
204
196
212
203
199
214
205
195
213
203
63
101
213
85
120
206
174
196
218
207
223
204
192
209
204
189
207
201
188
206
203
188
206
201
188
206
204
187
205
203
189
205
205
190
206
203
191
207
205
192
209
200
190
208
204
190
205
205
190
206
200
187
206
207
189
205
204
189
205
203
187
204
199
203
217
210
200
217
209
193
212
213
175
195
211
101
134
211
56
98
212
54
98
216
16
66
222
8
61
222
8
59
215
7
58
215
8
61
220
8
60
222
7
59
221
7
60
221
7
60
224
4
61
222
7
60
219
0
49
219
0
52
215
4
55
215
15
60
208
66
108
220
92
132
221
111
142
215
140
168
213
136
167
217
133
163
223
126
160
225
55
89
207
49
93
216
111
143
206
180
202
206
164
189
208
158
184
207
154
180
203
141
168
212
142
167
209
165
186
208
173
191
209
191
208
205
187
206
206
178
197
202
33
78
207
0
43
221
0
52
222
7
59
225
10
58
220
8
60
222
7
59
221
5
60
223
0
54
225
2
54
216
102
137
213
147
174
215
165
186
209
177
198
210
181
199
214
185
207
204
183
199
209
186
205
200
190
207
206
193
209
203
190
211
204
191
208
206
189
206
208
190
206
208
188
205
205
191
209
204
188
208
205
192
209
205
188
206
205
186
204
204
186
204
204
186
204
204
186
204
204
187
205
205
186
204
204
185
203
205
184
198
206
193
212
206
189
206
205
187
205
205
187
205
205
186
204
204
186
204
204
186
204
204
186
204
204
186
204
204
186
204
204
186
204
204
187
205
205
186
204
204
187
205
205
187
205
205
186
204
204
187
205
205
186
204
204
186
204
204
186
204
204
186
204
204
186
204
204
186
204
204
186
208
203
193
209
206
153
178
213
48
89
206
13
64
225
7
60
223
10
55
219
55
98
209
55
100
220
54
98
220
52
96
220
47
92
219
56
100
220
75
107
204
63
100
206
155
178
210
206
223
211
207
221
206
205
223
204
195
214
200
194
211
200
190
210
205
185
205
207
188
204
205
189
205
205
188
206
201
197
217
209
200
216
202
193
212
204
186
204
208
187
204
206
187
204
204
190
205
208
187
205
204
186
207
207
188
204
201
187
205
202
186
205
203
186
206
203
189
206
204
205
218
207
200
221
212
126
155
213
68
104
198
56
101
223
50
93
219
49
93
220
67
105
209
114
142
206
189
208
212
196
210
210
187
205
206
188
205
203
184
206
204
188
206
198
189
205
204
186
206
206
186
206
206
186
206
206
185
205
209
188
203
205
189
204
204
187
206
203
188
205
205
189
204
204
188
204
208
187
205
204
187
205
205
186
204
204
186
204
204
186
204
204
186
204
204
186
204
204
187
205
205
186
204
204
187
205
204
185
206
204
187
205
202
187
205
205
187
205
205
187
205
205
186
204
204
187
205
205
187
205
205
187
205
205
186
204
204
186
204
204
186
204
204
187
205
205
186
204
204
186
204
204
186
204
204
186
204
204
187
205
205
186
204
204
186
204
204
186
204
204
186
204
204
186
204
204
186
204
204
188
204
203
182
201
204
71
115
208
65
106
217
70
107
209
69
106
208
59
102
207
183
201
198
188
206
205
189
204
208
188
204
209
185
203
206
189
205
206
192
211
203
192
209
204
189
206
204
186
204
204
187
205
205
187
205
205
186
204
204
186
204
204
186
204
204
186
204
204
187
205
205
187
205
205
187
205
205
187
205
205
187
205
205
187
205
205
187
205
205
187
205
205
187
205
205
186
204
204
187
205
205
186
204
204
186
204
204
186
204
204
187
205
205
187
205
205
187
205
205
186
204
204
186
204
204
190
208
204
192
209
205
188
206
205
188
204
207
187
203
206
191
209
206
191
208
205
188
205
204
187
205
205
187
205
205
187
205
205
186
204
204
187
205
205
186
204
204
187
205
205
187
205
205
186
204
204
187
205
205
186
204
204
187
205
205
187
205
205
187
205
205
187
205
205
187
204
204
187
205
205
187
205
205
187
205
205
187
205
205
186
204
204
186
204
204
186
204
204
186
204
204
187
205
205
187
205
205
187
205
206
186
204
204
186
204
204
186
204
204
186
204
204
186
204
204
186
204
204
186
204
204
186
204
204
188
206
206
186
204
204
186
204
204
187
205
205
186
204
204
186
204
204
186
204
204
186
204
204
186
204
204
186
204
204
186
204
204
186
204
204
186
204
204
186
204
204
186
204
204
186
204
204
187
205
205
189
206
204
192
209
205
192
209
204
192
209
205
184
202
200
180
198
199
187
205
208
185
205
204
185
206
203
187
205
203
186
205
205
187
204
207
187
205
205
186
204
204
187
205
205
187
205
205
187
205
205
186
204
204
187
205
205
187
205
205
187
205
205
187
205
205
186
204
204
187
205
205
187
205
205
187
205
205
186
204
204
186
204
204
186
204
204
186
205
205
187
205
205
186
204
204
186
204
204
187
205
205
187
205
205
186
205
205
187
205
205
187
205
205
187
205
205
187
205
205
187
205
205
186
204
204
187
205
206
186
205
208
186
205
209
187
205
204
187
205
205
187
205
205
187
205
205
187
205
205
187
205
205
187
205
205
186
204
204
187
205
205
186
204
204
187
205
205
186
205
205
187
205
205
186
204
204
187
205
205
187
205
205
187
205
205
187
205
205
186
204
204
186
204
204
187
205
205
187
205
205
186
204
204
187
205
205
186
205
205
186
204
204
186
204
204
186
204
204
187
205
205
186
204
204
186
204
204
187
205
205
186
204
204
187
205
205
186
204
204
186
204
204
186
204
204
186
204
204
186
204
204
186
204
204
187
205
205
187
205
205
187
205
205
187
205
205
187
205
205
186
204
204
186
204
204
187
205
205
187
205
205
187
205
205
187
205
205
186
204
204
186
204
204
187
205
205
187
205
205
188
206
206
184
202
202
187
205
205
188
206
206
180
198
198
176
193
192
183
199
199
181
199
199
182
199
199
182
199
199
181
199
198
183
199
199
181
199
199
181
199
199
181
199
199
182
199
199
181
199
199
181
199
199
182
199
199
182
199
199
182
199
199
182
199
199
182
199
199
181
199
199
181
199
199
181
199
199
181
199
199
181
199
199
181
199
199
182
199
199
182
199
199
181
199
199
181
199
199
181
199
199
182
199
199
182
199
199
182
199
199
182
199
199
181
199
199
181
199
199
182
199
199
182
199
199
181
199
199
181
199
199
181
199
199
182
199
199
182
199
199
182
199
199
181
199
199
181
199
199
182
199
199
181
199
199
181
199
199
182
199
199
181
199
199
181
199
199
182
199
199
182
199
199
180
198
198
181
199
199
182
199
199
182
199
199
182
199
199
181
198
198
181
199
199
181
199
199
181
199
199
182
199
199
182
199
199
181
199
199
181
199
199
181
199
199
180
198
198
181
199
199
181
199
199
181
199
199
182
199
199
181
199
199
181
199
199
181
199
199
181
199
199
181
199
199
181
199
199
181
199
199
181
199
199
181
199
199
181
199
199
181
199
199
181
199
199
181
199
199
181
199
199
181
199
199
181
199
199
181
199
199
182
199
199
182
199
199
181
199
199
181
199
199
181
199
199
181
199
199
181
199
199
181
199
199
181
199
199
182
199
199
176
193
193
